<?xml version="1.0" encoding="UTF-8"?>
<svg id="Capa_2" data-name="Capa 2" xmlns="http://www.w3.org/2000/svg" xmlns:xlink="http://www.w3.org/1999/xlink" viewBox="0 0 300 100">
  <defs>
    <style>
      .cls-1 {
        fill: url(#Degradado_sin_nombre_72);
      }
    </style>
    <linearGradient id="Degradado_sin_nombre_72" data-name="Degradado sin nombre 72" x1=".5" y1="50" x2="299.5" y2="50" gradientUnits="userSpaceOnUse">
      <stop offset="0" stop-color="#fff"/>
      <stop offset="0" stop-color="#232322"/>
    </linearGradient>
  </defs>
  <g id="Capa_1-2" data-name="Capa 1">
    <g>
      <path class="cls-1" d="M281.28,99.5c-7.03-18.08-17.66-34.35-31.59-48.38l-28.38-21.93c-21.87-12.69-45.72-19.14-70.96-19.22-1.46-.06-2.95-.08-4.41-.08-17.62,0-34.36,4.1-49.77,12.2-17.28,5.61-32.51,15.4-45.19,29.05-13.63,12.66-23.41,27.89-29.06,45.24-.5.93-1.03,1.98-1.58,3.12H.5V.5h299v99h-18.22Z"/>
      <path d="M299,1v98h-17.38c-7.06-18.01-17.68-34.24-31.58-48.23l-.05-.05-.05-.04-28.33-21.89-.05-.04-.06-.03c-21.89-12.69-45.83-19.17-71.12-19.25-1.48-.06-2.98-.08-4.44-.08-17.67,0-34.46,4.11-49.92,12.22-17.39,5.67-32.66,15.49-45.37,29.16-13.68,12.71-23.49,27.98-29.16,45.37-.47.9-.95,1.84-1.44,2.86H1V1h298M300,0H0v100h20.66c.56-1.16,1.14-2.32,1.74-3.47,5.65-17.36,15.3-32.38,28.95-45.06,12.68-13.65,27.7-23.3,45.06-28.95,15.41-8.09,31.92-12.14,49.53-12.14,1.46,0,2.93.03,4.41.08,25.27.08,48.82,6.45,70.66,19.11l28.33,21.89c14.04,14.13,24.57,30.31,31.6,48.53h19.06V0h0Z"/>
    </g>
  </g>
</svg>