<?xml version="1.0" encoding="UTF-8"?>
<svg id="Capa_2" data-name="Capa 2" xmlns="http://www.w3.org/2000/svg" viewBox="0 0 300 100">
  <defs>
    <style>
      .cls-1 {
        fill: #232322;
      }
    </style>
  </defs>
  <g id="Capa_1-2" data-name="Capa 1">
    <g>
      <path class="cls-1" d="M.5,99.5V.5h299v39.5c0,20.51-10.32,39.25-27.65,50.25-6.54-12.59-15.05-24.2-25.31-34.53l-28.38-21.93c-21.87-12.69-45.72-19.14-70.96-19.22-1.46-.06-2.95-.08-4.41-.08-17.62,0-34.36,4.1-49.77,12.2-17.28,5.61-32.51,15.4-45.19,29.05-13.23,12.28-22.84,27.02-28.55,43.77H.5Z"/>
      <path d="M299,1v39c0,20.15-10.06,38.59-26.95,49.53-6.53-12.45-14.99-23.94-25.15-34.17l-.05-.05-.05-.04-28.33-21.89-.05-.04-.06-.03c-21.89-12.69-45.83-19.17-71.12-19.25-1.48-.06-2.98-.08-4.44-.08-17.67,0-34.46,4.11-49.92,12.22-17.39,5.67-32.66,15.49-45.37,29.16-13.21,12.28-22.82,26.96-28.57,43.64H1V1h298M300,0H0v100h19.63c5.69-16.88,15.21-31.53,28.56-43.93,12.68-13.65,27.7-23.3,45.06-28.95,15.41-8.09,31.92-12.14,49.53-12.14,1.46,0,2.93.03,4.41.08,25.27.08,48.82,6.45,70.66,19.11,9.44,7.3,18.89,14.59,28.33,21.89,10.43,10.5,18.91,22.14,25.47,34.89,17.01-10.59,28.34-29.45,28.34-50.96V0h0Z"/>
    </g>
  </g>
</svg>