<?xml version="1.0" encoding="utf-8"?>
<!-- Generator: Adobe Illustrator 26.5.0, SVG Export Plug-In . SVG Version: 6.00 Build 0)  -->
<svg version="1.1" id="Capa_1" xmlns="http://www.w3.org/2000/svg" xmlns:xlink="http://www.w3.org/1999/xlink" x="0px" y="0px"
	 viewBox="0 0 1000 1000" style="enable-background:new 0 0 1000 1000;" xml:space="preserve">
<style type="text/css">
	.st0{fill:#F6F3EB;}
</style>
<g>
	<g>
		<g>
			<path class="st0" d="M610.2,755.6L408.1,299.3c-14.1-31.5-38.9-50.5-73.7-50.5h-7.4c-34.8,0-60.5,19.1-74.5,50.5l-19,43
				c0.4,0.1,0.7,0.2,1.1,0.4c1.1,0.4,2.6,0.3,3.6-0.1c2.9-1.1,5.7-2.8,8.6-3.9c9.4-3.4,19.1-4.2,28.9-2c3.9,0.9,3.8,1,5.4-2.7
				c4.7-10.4,11.6-18.7,22.1-23.7c5.5-2.6,11.1-3.9,17.5-3.2c-8.5,11.6-17.6,22.5-22.1,36.7c2.7,0.3,4.7,0.3,6.7-1.2
				c8.3-6.2,16.5-12.7,25.1-18.4c7.6-5,15.9-8.6,25.1-9.6c5.8-0.6,11.2,0.6,15.6,5.1c-5.6,5.3-11.2,10.4-16.5,15.7
				c-6.1,6.2-11.9,12.7-17.9,19c-1.4,1.5-0.7,2.3,0.4,3.6c4.6,5.3,9.6,10.4,13.3,16.3c4.8,7.7,8.5,16.1,12.9,24.1
				c3.5,6.4,7,12.7,10.9,18.8c4.9,7.6,9.9,15.2,16.9,21c6.7,5.5,14.1,10.2,21.2,15.3c17.1,12.1,34.3,24.1,51.4,36.3
				c10.9,7.8,12.8,23.4,4.5,33.9c-1,1.2-1.6,2.9-1.9,4.5c-1.9,9.2-5.8,16.8-15.6,19.9c-0.6,0.2-1.3,0.7-1.7,1.3
				c-6.5,9-15.5,14.1-25.9,16.8c-12.7,3.3-25.5,2.3-38.2-0.6c-1.8-0.4-3.1-0.2-4.6,1c-7.2,5.5-15.2,9.8-23.7,13
				c-6.7,2.5-20.1,4.2-54.5-9.9l-146.6-52.1L50.3,755.6c-4.1,9.1-7.4,18.2-7.4,27.3c0,33.1,25.7,59.6,58.8,59.6
				c26.5,0,48-14.9,58.8-39.8l40.6-95.2c7.6-7.9,56.5-57.4,133.5-54.8c69.7,2.4,112.9,45.8,121.5,54.8c13,30.4,26,60.7,38.9,91.1
				c11.6,26.5,31.5,43.9,61.3,43.9c33.9,0,60.4-27.3,60.4-61.3C616.8,773,614.3,764.7,610.2,755.6z"/>
			<path class="st0" d="M175,485c3.9-13,15.6-48.9,40.8-79.4c6.1-7.4,18.5-21.3,38.1-35.3c3.9-2.7,8.1-4.9,14.6-8.8
				c1.8,13.3,3.8,24.3,4.7,35.4c0.7,8.4,4.6,11.4,12.6,10.7c21.9-1.9,37.4,6.4,47.1,27.1c5.8,12.4,16.8,20.3,30.9,24.1
				c4.5,1.2,9.8,7.3,10.8,11.9c6,27.8-8.5,47.2-41.6,57.6c-5.4,1.7-10.9,3.5-16,6c-28.3-10.6-52.2-18.4-69.8-23.8
				C191.7,493.4,186.3,496.3,175,485c0,0-0.9-0.9-2.5-2.5"/>
		</g>
	</g>
	<path class="st0" d="M921.1,157.5c-5.9,0-11.6,1.8-11.6,1.8c-1.7,0.5-3.9,1.3-6.1,2.6c0,0-5.1,2.9-8.9,8
		c-4.2,5.5-82.1,161.7-190.4,381.3c-7.6,4.6-16.1,7.5-25.3,6.8c-8.3-0.5-15.6-3.8-21.9-8.4c-52.1-112-88.7-190.8-95.7-207.4
		c-1.3-3.2-5.5-13.8-16-20.3c-5.8-3.6-12.8-5.7-21.2-5.7c-20.7,0-36.6,16-36.6,35.4c0,6.5,1.8,11.8,4.1,17.1l144.7,340.1
		c7.7,18.3,21.3,29.5,41.3,29.5h4.1c20.7,0,34.2-11.2,41.9-29.5l230.2-501.3c1.8-4.1,3.5-10,3.5-15.3
		C957.1,172.8,941.2,157.5,921.1,157.5z"/>
</g>
</svg>
