<?xml version="1.0" encoding="utf-8"?>
<!-- Generator: Adobe Illustrator 26.5.0, SVG Export Plug-In . SVG Version: 6.00 Build 0)  -->
<svg version="1.1" xmlns="http://www.w3.org/2000/svg" xmlns:xlink="http://www.w3.org/1999/xlink" x="0px" y="0px"
	 viewBox="0 0 1000 1000" style="enable-background:new 0 0 1000 1000;" xml:space="preserve">
<style type="text/css">
	.st0{fill:#232323;}
	.st1{fill:#F5F1EA;}
</style>
<g id="Capa_2">
	<rect x="-0.08" class="st0" width="1000.79" height="1000.79"/>
</g>
<g id="Capa_1">
	<g>
		<g>
			<g>
				<path class="st1" d="M593.09,716L422.32,330.36c-11.89-26.59-32.89-42.69-62.29-42.69h-6.29c-29.4,0-51.09,16.1-62.99,42.69
					l-16.09,36.33c0.31,0.1,0.62,0.2,0.93,0.3c0.92,0.31,2.15,0.29,3.06-0.06c2.48-0.96,4.8-2.37,7.3-3.27
					c7.96-2.84,16.11-3.57,24.4-1.66c3.3,0.76,3.23,0.81,4.6-2.24c3.94-8.81,9.81-15.81,18.69-20.03c4.63-2.2,9.41-3.27,14.81-2.69
					c-7.19,9.82-14.91,19.01-18.63,31.02c2.24,0.24,3.98,0.26,5.65-0.98c7.04-5.25,13.94-10.72,21.24-15.59
					c6.39-4.26,13.47-7.28,21.23-8.11c4.92-0.53,9.43,0.55,13.15,4.31c-4.76,4.52-9.48,8.76-13.92,13.27
					c-5.16,5.24-10.07,10.73-15.13,16.08c-1.2,1.27-0.62,1.97,0.33,3.08c3.87,4.5,8.09,8.82,11.23,13.81
					c4.09,6.49,7.2,13.59,10.88,20.35c2.93,5.37,5.91,10.74,9.2,15.89c4.1,6.42,8.36,12.86,14.3,17.71
					c5.69,4.65,11.91,8.65,17.92,12.9c14.47,10.22,29.02,20.34,43.41,30.67c9.24,6.63,10.81,19.78,3.79,28.67
					c-0.82,1.04-1.31,2.47-1.59,3.8c-1.65,7.77-4.94,14.21-13.14,16.86c-0.55,0.18-1.11,0.62-1.45,1.09
					c-5.45,7.61-13.14,11.9-21.92,14.2c-10.74,2.81-21.55,1.93-32.26-0.52c-1.54-0.35-2.62-0.14-3.88,0.82
					c-6.09,4.68-12.81,8.28-19.98,10.98c-5.64,2.12-16.99,3.51-46.04-8.33L208.99,515l-89.01,201c-3.5,7.7-6.3,15.4-6.3,23.1
					c0,27.99,21.7,50.39,49.69,50.39c22.4,0,40.59-12.6,49.69-33.59l34.3-80.49c6.39-6.68,47.78-48.53,112.85-46.32
					c58.91,2,95.44,38.7,102.71,46.32c10.97,25.66,21.93,51.33,32.9,76.99c9.8,22.4,26.59,37.09,51.8,37.09
					c28.69,0,51.09-23.1,51.09-51.79C598.7,730.7,596.6,723.7,593.09,716z"/>
				<path class="st1" d="M225.37,487.32c3.27-10.96,13.21-41.29,34.45-67.08c5.15-6.25,15.64-17.99,32.21-29.82
					c3.26-2.33,6.88-4.17,12.37-7.46c1.55,11.24,3.22,20.56,4.01,29.95c0.6,7.11,3.9,9.62,10.69,9.02
					c18.54-1.65,31.57,5.39,39.8,22.86c4.93,10.48,14.22,17.18,26.1,20.41c3.78,1.03,8.29,6.13,9.14,10.08
					c5.04,23.52-7.19,39.88-35.15,48.69c-4.58,1.44-9.18,3-13.5,5.08c-23.92-9-44.14-15.58-58.95-20.13
					C239.42,494.46,234.86,496.9,225.37,487.32c0,0-0.78-0.79-2.13-2.15"/>
			</g>
		</g>
		<path class="st1" d="M855.88,210.51c-4.97,0-9.84,1.54-9.84,1.54c-1.47,0.44-3.27,1.12-5.18,2.21c0,0-4.27,2.46-7.52,6.76
			c-3.54,4.68-69.37,136.69-160.95,322.25c-6.45,3.85-13.63,6.31-21.43,5.79c-7.02-0.46-13.16-3.24-18.53-7.11
			c-44-94.65-74.97-161.22-80.85-175.27c-1.14-2.72-4.66-11.63-13.56-17.17c-4.9-3.05-10.86-4.78-17.88-4.78
			c-17.46,0-30.94,13.47-30.94,29.94c0,5.48,1.49,9.98,3.49,14.47l122.25,287.41c6.48,15.47,17.96,24.95,34.92,24.95h3.49
			c17.47,0,28.94-9.48,35.43-24.95l194.51-423.62c1.49-3.49,3-8.48,3-12.97C886.33,223.48,872.85,210.51,855.88,210.51z"/>
	</g>
</g>
</svg>
