<?xml version="1.0" encoding="utf-8"?>
<!-- Generator: Adobe Illustrator 26.5.0, SVG Export Plug-In . SVG Version: 6.00 Build 0)  -->
<svg version="1.1" xmlns="http://www.w3.org/2000/svg" xmlns:xlink="http://www.w3.org/1999/xlink" x="0px" y="0px"
	 viewBox="0 0 2000 2000" style="enable-background:new 0 0 1000 1000;" xml:space="preserve">
<style type="text/css">
	.st0{fill:#F6F3EC;}
	.st1{fill:#222323;}
</style>
<g id="Capa_1">
	<g>
		<g>
			<g>
				<g>
					<path class="st1" d="M247.51,532.49c0-6.02,4.61-10.81,10.63-10.81c6.02,0,10.81,4.78,10.81,10.81v4.43
						c6.02-8.33,14.17-16.12,28.52-16.12c13.47,0,23.03,6.55,27.99,16.48c7.44-9.92,17.36-16.48,31.53-16.48
						c20.37,0,32.78,12.93,32.78,35.79v49.96c0,6.02-4.61,10.63-10.63,10.63c-6.02,0-10.81-4.61-10.81-10.63v-43.4
						c0-14.88-6.91-22.85-18.95-22.85c-11.69,0-20.02,8.15-20.02,23.21v43.05c0,6.02-4.78,10.63-10.63,10.63
						c-6.02,0-10.81-4.61-10.81-10.63v-43.58c0-14.53-7.09-22.68-18.96-22.68c-11.87,0-20.02,8.86-20.02,23.21v43.05
						c0,6.02-4.78,10.63-10.81,10.63c-5.85,0-10.63-4.61-10.63-10.63V532.49z"/>
					<path class="st1" d="M415.47,497.59c0-6.38,5.32-10.45,12.23-10.45s12.22,4.08,12.22,10.45v1.06c0,6.38-5.31,10.63-12.22,10.63
						s-12.23-4.25-12.23-10.63V497.59z M417.06,532.49c0-6.02,4.61-10.81,10.63-10.81c6.02,0,10.81,4.78,10.81,10.81v74.05
						c0,6.02-4.78,10.63-10.81,10.63c-5.85,0-10.63-4.61-10.63-10.63V532.49z"/>
					<path class="st1" d="M471.98,636.66c-3.72-1.42-6.02-4.43-6.02-8.5c0-4.78,4.08-8.86,9.04-8.86c1.59,0,2.83,0.36,3.9,0.89
						c8.5,4.78,17.89,7.44,28.7,7.44c19.13,0,29.59-9.92,29.59-28.7v-7.26c-7.79,10.1-17.54,17.19-32.95,17.19
						c-21.97,0-42.52-16.3-42.52-43.76v-0.36c0-27.64,20.73-43.94,42.52-43.94c15.77,0,25.51,7.26,32.78,15.95v-4.43
						c0-5.85,4.78-10.63,10.63-10.63c6.02,0,10.81,4.78,10.81,10.81v64.66c0,15.77-4.08,27.46-11.87,35.26
						c-8.5,8.5-21.61,12.58-38.44,12.58C495.01,644.98,483.32,642.15,471.98,636.66z M537.36,564.91v-0.36
						c0-15.23-12.58-25.69-27.46-25.69s-26.57,10.27-26.57,25.69v0.36c0,15.23,11.87,25.69,26.57,25.69
						C524.78,590.6,537.36,580.14,537.36,564.91z"/>
					<path class="st1" d="M580.23,570.05v-0.36c0-26.75,21.26-48.9,49.96-48.9c28.7,0,49.78,21.79,49.78,48.54v0.35
						c0,26.57-21.26,48.72-50.13,48.72C601.32,618.41,580.23,596.62,580.23,570.05z M658.54,570.05v-0.36
						c0-16.48-11.87-30.12-28.7-30.12c-17.18,0-28.17,13.46-28.17,29.76v0.35c0,16.3,11.87,29.94,28.52,29.94
						C647.55,599.63,658.54,586.17,658.54,570.05z"/>
					<path class="st1" d="M850.24,619.21c-27.11,0-48.01-19.67-48.01-48.54v-0.35c0-26.75,18.95-48.72,45.71-48.72
						c29.76,0,44.47,24.45,44.47,46.06c0,6.02-4.61,10.28-10.1,10.28h-58.64c2.3,15.23,13.11,23.74,26.93,23.74
						c9.04,0,16.12-3.19,22.14-8.15c1.6-1.24,3.01-1.95,5.49-1.95c4.78,0,8.5,3.72,8.5,8.68c0,2.66-1.24,4.96-2.83,6.56
						C875.4,614.43,864.77,619.21,850.24,619.21z M871.5,563.76c-1.42-13.82-9.57-24.63-23.74-24.63
						c-13.11,0-22.32,10.1-24.27,24.63H871.5z"/>
					<path class="st1" d="M918.81,591.22v-49.25h-3.54c-5.14,0-9.21-4.08-9.21-9.21s4.08-9.21,9.21-9.21h3.54V507.6
						c0-5.85,4.78-10.63,10.81-10.63c5.85,0,10.63,4.78,10.63,10.63v15.94h16.83c5.14,0,9.39,4.08,9.39,9.21s-4.25,9.21-9.39,9.21
						h-16.83v45.88c0,8.33,4.25,11.69,11.51,11.69c2.48,0,4.61-0.53,5.31-0.53c4.78,0,9.04,3.9,9.04,8.86c0,3.9-2.66,7.09-5.67,8.33
						c-4.61,1.59-9.04,2.48-14.7,2.48C929.97,618.68,918.81,611.77,918.81,591.22z"/>
				</g>
				<g>
					<g>
						<path class="st1" d="M226.4,590.29l-68.7-155.14c-4.79-10.7-13.23-17.17-25.06-17.17h-2.53c-11.83,0-20.55,6.48-25.34,17.17
							l-6.47,14.61c0.12,0.04,0.25,0.08,0.37,0.12c0.37,0.12,0.87,0.12,1.23-0.02c1-0.39,1.93-0.95,2.94-1.31
							c3.2-1.14,6.48-1.44,9.82-0.67c1.33,0.31,1.3,0.33,1.85-0.9c1.58-3.54,3.95-6.36,7.52-8.06c1.86-0.88,3.79-1.32,5.96-1.08
							c-2.89,3.95-6,7.65-7.49,12.48c0.9,0.1,1.6,0.11,2.27-0.39c2.83-2.11,5.61-4.31,8.54-6.27c2.57-1.71,5.42-2.93,8.54-3.26
							c1.98-0.21,3.79,0.22,5.29,1.73c-1.91,1.82-3.81,3.52-5.6,5.34c-2.08,2.11-4.05,4.32-6.09,6.47
							c-0.48,0.51-0.25,0.79,0.13,1.24c1.56,1.81,3.25,3.55,4.52,5.55c1.65,2.61,2.9,5.47,4.38,8.19c1.18,2.16,2.38,4.32,3.7,6.39
							c1.65,2.58,3.36,5.17,5.75,7.13c2.29,1.87,4.79,3.48,7.21,5.19c5.82,4.11,11.67,8.18,17.46,12.34
							c3.72,2.67,4.35,7.96,1.52,11.53c-0.33,0.42-0.53,0.99-0.64,1.53c-0.66,3.13-1.99,5.71-5.29,6.78
							c-0.22,0.07-0.45,0.25-0.58,0.44c-2.19,3.06-5.28,4.79-8.82,5.71c-4.32,1.13-8.67,0.78-12.98-0.21
							c-0.62-0.14-1.05-0.06-1.56,0.33c-2.45,1.88-5.15,3.33-8.04,4.42c-2.27,0.85-6.83,1.41-18.52-3.35l-49.83-17.7l-35.81,80.86
							c-1.41,3.1-2.54,6.19-2.54,9.29c0,11.26,8.73,20.27,19.99,20.27c9.01,0,16.33-5.07,19.99-13.51l13.8-32.38
							c2.57-2.69,19.22-19.52,45.4-18.63c23.7,0.81,38.39,15.57,41.32,18.63c4.41,10.32,8.82,20.65,13.23,30.97
							c3.94,9.01,10.7,14.92,20.84,14.92c11.54,0,20.55-9.29,20.55-20.84C228.65,596.21,227.81,593.39,226.4,590.29z"/>
						<path class="st1" d="M78.47,498.3c1.31-4.41,5.31-16.61,13.86-26.98c2.07-2.51,6.29-7.24,12.96-11.99
							c1.31-0.94,2.77-1.68,4.98-3c0.62,4.52,1.3,8.27,1.61,12.05c0.24,2.86,1.57,3.87,4.3,3.63c7.46-0.66,12.7,2.17,16.01,9.2
							c1.98,4.21,5.72,6.91,10.5,8.21c1.52,0.41,3.34,2.46,3.68,4.05c2.03,9.46-2.89,16.04-14.14,19.59
							c-1.84,0.58-3.69,1.21-5.43,2.04c-9.62-3.62-17.76-6.27-23.72-8.1C84.12,501.17,82.29,502.15,78.47,498.3
							c0,0-0.31-0.32-0.86-0.86"/>
					</g>
				</g>
			</g>
		</g>
		<path class="st1" d="M841.69,355.02c-8.12,0-14.28,5.32-16.52,11.2L751.6,545.13c-3.65,1.55-7.61,2.38-11.77,2.38
			c-3.88,0-7.58-0.71-11.03-2.06l-45.24-113.09c-2.79-7.27-8.67-12.32-17.63-12.32c-9.8,0-17.35,7.57-17.35,16.8
			c0,3.08,0.84,5.59,1.96,8.12l68.57,161.21c3.63,8.67,10.07,13.99,19.59,13.99h1.96c9.8,0,16.24-5.32,19.87-13.99l96.54-227.36
			c0.84-1.96,1.69-4.75,1.69-7.27C858.76,362.3,851.21,355.02,841.69,355.02z"/>
	</g>
</g>
</svg>
