<?xml version="1.0" encoding="UTF-8"?>
<svg id="Capa_2" data-name="Capa 2" xmlns="http://www.w3.org/2000/svg" xmlns:xlink="http://www.w3.org/1999/xlink" viewBox="0 0 300 100">
  <defs>
    <style>
      .cls-1 {
        fill: url(#Degradado_sin_nombre_74);
      }
    </style>
    <linearGradient id="Degradado_sin_nombre_74" data-name="Degradado sin nombre 74" x1=".5" y1="50" x2="299.5" y2="50" gradientUnits="userSpaceOnUse">
      <stop offset="0" stop-color="#fff"/>
      <stop offset="0" stop-color="#232322"/>
    </linearGradient>
  </defs>
  <g id="Capa_1-2" data-name="Capa 1">
    <g>
      <path class="cls-1" d="M282.68,99.5c-7.01-16.88-17.22-32.14-30.37-45.38l-28.38-21.93c-21.87-12.69-45.72-19.14-70.96-19.22-1.46-.06-2.95-.08-4.41-.08-17.62,0-34.36,4.1-49.77,12.2-17.28,5.61-32.51,15.4-45.19,29.05-11.6,10.77-20.44,23.45-26.27,37.67C10.52,84.21.5,72.05.5,59.18V.5h299v99h-16.82Z"/>
      <path d="M299,1v98h-15.99c-7.03-16.81-17.24-32.03-30.35-45.23l-.05-.05-.05-.04-28.33-21.89-.05-.04-.06-.03c-21.89-12.69-45.83-19.17-71.12-19.25-1.48-.06-2.98-.08-4.44-.08-17.67,0-34.46,4.11-49.92,12.22-17.39,5.67-32.66,15.49-45.37,29.16-11.53,10.72-20.34,23.28-26.19,37.36C10.72,83.61,1,71.72,1,59.18V1h298M300,0H0v59.18c0,13.74,10.9,25.89,27.59,33.29,5.82-14.4,14.6-27.07,26.37-37.99,12.68-13.65,27.7-23.3,45.06-28.95,15.41-8.09,31.92-12.14,49.53-12.14,1.46,0,2.93.03,4.41.08,25.27.08,48.82,6.45,70.66,19.11,9.44,7.3,18.89,14.59,28.33,21.89,13.26,13.35,23.38,28.53,30.39,45.53h17.65V0h0Z"/>
    </g>
  </g>
</svg>